<svg width="400" height="400" viewBox="0 0 400 400" fill="none" xmlns="http://www.w3.org/2000/svg">
<path d="M97 161L119.5 119.5H142.5L121 161L123 189L115.5 195.5L108.5 194L95 189L97 161Z" fill="#AEF261"/>
<path d="M155.5 160.5L166 116.5H182L184 160.5L182 188L169 197L157 189.5L155.5 160.5Z" fill="#AEF261"/>
<path d="M215 163L211.5 118H233.5L243.5 162L242.5 187L229 196.5L216 188L215 163Z" fill="#AEF261"/>
<path d="M254 117H280.5L290.75 139L302 162L303 185L288.5 195.5L274.5 185L273 162L264.25 139L254 117Z" fill="#AEF261"/>
<path d="M106.133 194.311V281.756C106.133 284.517 108.372 286.756 111.133 286.756H287.444C290.206 286.756 292.444 284.517 292.444 281.756V194.311" stroke="black" stroke-width="9"/>
<rect x="97.8334" y="286.989" width="204.333" height="16.6" rx="8.3" stroke="black" stroke-width="9"/>
<mask id="path-7-inside-1_43_101" fill="white">
<rect x="224.178" y="207.111" width="51.2" height="83.9111" rx="5"/>
</mask>
<rect x="224.178" y="207.111" width="51.2" height="83.9111" rx="5" stroke="black" stroke-width="18" mask="url(#path-7-inside-1_43_101)"/>
<mask id="path-8-inside-2_43_101" fill="white">
<rect x="121.778" y="209.956" width="85.3333" height="46.9333" rx="5"/>
</mask>
<rect x="121.778" y="209.956" width="85.3333" height="46.9333" rx="5" stroke="black" stroke-width="18" mask="url(#path-8-inside-2_43_101)"/>
<line x1="155.046" y1="216.277" x2="145.277" y2="229.954" stroke="black" stroke-width="9" stroke-linecap="round"/>
<line x1="168.703" y1="239.325" x2="158.325" y2="252.297" stroke="black" stroke-width="9" stroke-linecap="round"/>
<line x1="195.287" y1="219.089" x2="187.289" y2="230.024" stroke="black" stroke-width="9" stroke-linecap="round"/>
<path fill-rule="evenodd" clip-rule="evenodd" d="M92 160.876V180.953C92 190.675 99.8811 198.556 109.603 198.556C115.877 198.556 121.385 195.273 124.502 190.331C127.619 195.273 133.127 198.556 139.402 198.556C145.677 198.556 151.184 195.273 154.301 190.331C157.418 195.273 162.926 198.556 169.201 198.556C175.476 198.556 180.983 195.273 184.1 190.331C187.218 195.273 192.725 198.556 199 198.556C205.275 198.556 210.782 195.273 213.9 190.331C217.017 195.273 222.524 198.556 228.799 198.556C235.074 198.556 240.582 195.273 243.699 190.331C246.816 195.273 252.323 198.556 258.598 198.556C264.873 198.556 270.381 195.273 273.498 190.331C276.615 195.273 282.123 198.556 288.397 198.556C298.119 198.556 306 190.675 306 180.953V160.876H300V180.953C300 187.361 294.805 192.556 288.397 192.556C281.989 192.556 276.794 187.361 276.794 180.953V160.876H270.201V180.953C270.201 187.361 265.006 192.556 258.598 192.556C252.19 192.556 246.995 187.361 246.995 180.953V160.876H240.402V180.953C240.402 187.361 235.207 192.556 228.799 192.556C222.391 192.556 217.196 187.361 217.196 180.953V160.876H210.603V180.953C210.603 187.361 205.408 192.556 199 192.556C192.592 192.556 187.397 187.361 187.397 180.953V160.876H180.804V180.953C180.804 187.361 175.609 192.556 169.201 192.556C162.793 192.556 157.598 187.361 157.598 180.953V160.876H151.005V180.953C151.005 187.361 145.81 192.556 139.402 192.556C132.994 192.556 127.799 187.361 127.799 180.953V160.876H121.206V180.953C121.206 187.361 116.011 192.556 109.603 192.556C103.195 192.556 98 187.361 98 180.953V160.876H92Z" fill="black"/>
<path d="M117.705 118.838C118.852 116.778 121.026 115.5 123.384 115.5H274.616C276.974 115.5 279.148 116.778 280.295 118.838L302.804 159.27C303.361 160.27 302.638 161.5 301.494 161.5H96.5063C95.3619 161.5 94.639 160.27 95.1957 159.27L117.705 118.838Z" stroke="black" stroke-width="7"/>
<line x1="121.851" y1="164.406" x2="144.606" y2="117.473" stroke="black" stroke-width="7"/>
<line x1="152.616" y1="164.172" x2="165.061" y2="117.105" stroke="black" stroke-width="7"/>
<line x1="184.5" y1="163" x2="184.5" y2="117" stroke="black" stroke-width="7"/>
<line x1="244.571" y1="163.701" x2="235.571" y2="119.701" stroke="black" stroke-width="7"/>
<line x1="214.24" y1="163.124" x2="211.506" y2="118.213" stroke="black" stroke-width="7"/>
<line x1="275.777" y1="165.129" x2="258.711" y2="118.196" stroke="black" stroke-width="7"/>
<rect x="118.5" y="99.5" width="162" height="17" rx="8.5" stroke="black" stroke-width="9"/>
<rect x="47" y="47" width="307" height="307" rx="85" stroke="#AEF261" stroke-width="10"/>
</svg>
