<svg width="400" height="400" viewBox="0 0 400 400" fill="none" xmlns="http://www.w3.org/2000/svg">
<path d="M113.026 110.395C110.631 109.731 108.151 111.133 107.486 113.528C106.821 115.922 108.224 118.403 110.619 119.067L113.026 110.395ZM141.184 155.859L136.753 156.641L141.184 155.859ZM277.714 275.676C280.2 275.676 282.214 273.661 282.214 271.176C282.214 268.691 280.2 266.676 277.714 266.676V275.676ZM278.987 240.656L274.824 238.947L278.987 240.656ZM155.626 270.534L153.217 274.335L155.626 270.534ZM135.611 124.288L131.18 125.07L135.611 124.288ZM110.619 119.067L130.821 124.675L133.228 116.003L113.026 110.395L110.619 119.067ZM156.701 248.258H274.361V239.258H156.701V248.258ZM283.15 242.364L315.111 164.464L306.785 161.048L274.824 238.947L283.15 242.364ZM131.18 125.07L136.753 156.641L145.616 155.076L140.043 123.506L131.18 125.07ZM136.753 156.641L152.27 244.54L161.133 242.975L145.616 155.076L136.753 156.641ZM306.322 151.359H141.184V160.359H306.322V151.359ZM157.959 275.676H277.714V266.676H157.959V275.676ZM156.701 243.758C154.572 239.793 154.571 239.794 154.57 239.795C154.569 239.795 154.568 239.795 154.567 239.796C154.565 239.797 154.563 239.798 154.561 239.799C154.557 239.802 154.551 239.804 154.546 239.808C154.534 239.814 154.52 239.821 154.504 239.83C154.471 239.848 154.429 239.872 154.377 239.901C154.273 239.96 154.132 240.04 153.959 240.143C153.614 240.347 153.139 240.64 152.577 241.015C151.461 241.759 149.957 242.857 148.434 244.268C145.555 246.935 141.783 251.487 141.783 257.467H150.783C150.783 255.332 152.22 253.03 154.55 250.87C155.632 249.868 156.733 249.061 157.57 248.503C157.984 248.226 158.323 248.018 158.548 247.885C158.66 247.819 158.743 247.771 158.792 247.744C158.816 247.73 158.832 247.721 158.839 247.718C158.842 247.716 158.843 247.715 158.842 247.716C158.841 247.716 158.84 247.717 158.838 247.718C158.837 247.719 158.836 247.719 158.834 247.72C158.834 247.72 158.833 247.721 158.832 247.721C158.831 247.722 158.83 247.722 156.701 243.758ZM141.783 257.467C141.783 262.288 144.245 266.164 146.6 268.802C148.992 271.481 151.712 273.381 153.217 274.335L158.035 266.734C156.879 266 154.927 264.616 153.313 262.808C151.662 260.958 150.783 259.144 150.783 257.467H141.783ZM315.111 164.464C317.676 158.213 313.079 151.359 306.322 151.359V160.359C306.678 160.359 306.92 160.719 306.785 161.048L315.111 164.464ZM274.361 248.258C278.215 248.258 281.687 245.929 283.15 242.364L274.824 238.947C274.747 239.135 274.564 239.258 274.361 239.258V248.258ZM157.959 266.676C157.907 266.676 157.891 266.669 157.908 266.674C157.926 266.679 157.974 266.695 158.035 266.734L153.217 274.335C154.742 275.301 156.416 275.676 157.959 275.676V266.676ZM130.821 124.675C131.007 124.727 131.146 124.88 131.18 125.07L140.043 123.506C139.406 119.901 136.756 116.982 133.228 116.003L130.821 124.675Z" fill="black"/>
<ellipse cx="102.554" cy="113.272" rx="16.0775" ry="9.64651" transform="rotate(12.207 102.554 113.272)" fill="black"/>
<circle cx="167.289" cy="282.554" r="11.1444" stroke="black" stroke-width="9"/>
<circle cx="264" cy="282.554" r="11.1444" stroke="black" stroke-width="9"/>
<line x1="186.952" y1="219.551" x2="175.584" y2="179.967" stroke="#AEF261" stroke-width="9" stroke-linecap="round"/>
<path d="M257.827 218.63L271.111 181.511" stroke="#AEF261" stroke-width="9" stroke-linecap="round"/>
<line x1="223.242" y1="218.286" x2="221.934" y2="179.048" stroke="#AEF261" stroke-width="9" stroke-linecap="round"/>
<rect x="47" y="47" width="307" height="307" rx="85" stroke="#AEF261" stroke-width="10"/>
</svg>
